<svg version="1.1" id="Layer_1" xmlns="http://www.w3.org/2000/svg" xmlns:xlink="http://www.w3.org/1999/xlink" x="0px" y="0px"
	 width="100%" viewBox="0 0 3281 831" enable-background="new 0 0 3281 831" xml:space="preserve">
<path fill="#000000" opacity="1.000000" stroke="none" 
	d="
M2127.000000,832.000000 
	C1418.000000,832.000000 709.500000,832.000000 1.000000,832.000000 
	C1.000000,555.000000 1.000000,278.000000 1.000000,1.000000 
	C1094.666626,1.000000 2188.333252,1.000000 3282.000000,1.000000 
	C3282.000000,278.000000 3282.000000,555.000000 3282.000000,832.000000 
	C2897.166748,832.000000 2512.333252,832.000000 2127.000000,832.000000 
M422.500000,75.000000 
	C381.082977,75.333328 339.660919,75.399597 298.252441,76.183510 
	C287.597870,76.385201 276.767914,77.949348 266.403687,80.470863 
	C249.045151,84.694023 232.599609,91.536667 217.245270,100.927429 
	C199.575500,111.734299 184.165161,125.178368 171.434097,141.344864 
	C157.503189,159.035004 147.150589,178.952515 141.250824,200.716049 
	C137.797104,213.456421 134.350357,226.734024 134.306519,239.781372 
	C133.819855,384.608337 133.972015,529.437500 134.096680,674.266052 
	C134.101974,680.411133 134.824356,686.742615 136.414597,692.664551 
	C141.304718,710.875305 149.774521,727.043030 163.680054,740.350342 
	C181.638245,757.536011 203.211990,765.410828 227.479858,765.730713 
	C236.375595,765.848022 245.596817,763.809387 254.169052,761.144348 
	C270.975067,755.919556 285.320465,746.645325 296.796448,732.859070 
	C310.446350,716.461365 318.541809,697.741943 318.795715,676.660034 
	C319.419983,624.835876 319.073822,572.999023 318.948486,521.167664 
	C318.916870,508.091003 327.985687,499.936554 340.286316,499.962280 
	C385.617950,500.057129 430.950317,500.086548 476.281372,499.897980 
	C482.421722,499.872437 488.700012,499.054871 494.667847,497.595551 
	C516.544983,492.245972 535.031738,481.319733 549.142151,463.407471 
	C561.542908,447.665558 568.305908,429.854706 568.934448,409.866272 
	C569.295715,398.378021 569.178467,386.864899 568.908203,375.371643 
	C568.806580,371.050690 568.118530,366.622864 566.918579,362.468842 
	C560.974670,341.891632 543.017822,328.687500 521.462341,328.835388 
	C455.467651,329.288177 389.467834,329.000000 323.470001,329.000000 
	C321.708221,329.000000 319.946442,329.000000 318.000000,329.000000 
	C318.000000,314.254211 318.607025,300.072998 317.824921,285.968781 
	C317.080322,272.540375 328.795776,262.934418 341.183319,262.949707 
	C420.847260,263.048126 500.511353,263.018799 580.175354,262.957153 
	C585.423584,262.953094 590.687561,262.497070 595.916321,261.973328 
	C614.928040,260.069092 631.156860,251.728958 645.121826,239.203293 
	C658.162476,227.506699 667.007874,212.825607 671.524719,195.855789 
	C675.251587,181.854111 676.789368,167.629471 673.044739,153.288742 
	C670.950256,145.267822 668.875183,137.241867 666.766235,129.121399 
	C680.696167,128.827713 695.089539,128.582794 709.349792,131.947098 
	C729.312439,136.656708 747.324402,145.475357 762.859497,158.597610 
	C778.206238,171.560822 790.499329,187.183640 798.504639,205.924515 
	C805.033813,221.209839 809.789917,236.863525 809.985535,253.632843 
	C810.071106,260.966644 810.513611,268.347900 809.867249,275.625305 
	C809.095032,284.319885 807.821350,293.037628 805.891968,301.547455 
	C802.033142,318.567047 795.364319,334.546021 785.943542,349.268768 
	C777.296692,362.781952 767.396912,375.244019 754.974487,385.607086 
	C741.123413,397.162018 728.015991,409.671906 713.659424,420.544128 
	C682.701355,443.988617 650.933899,466.363434 619.937744,489.759033 
	C605.228210,500.861633 591.005249,512.740417 577.524902,525.301086 
	C565.203186,536.782166 553.804932,549.327576 542.680664,562.001587 
	C529.297974,577.248657 520.695007,595.133789 515.973694,614.915161 
	C508.990234,644.174500 501.869019,673.401245 494.723053,702.621460 
	C490.904877,718.234009 487.097107,733.853943 482.898163,749.365967 
	C481.406189,754.877625 482.080994,759.224548 486.445526,762.930542 
	C490.981720,766.782288 495.629944,766.526123 500.840302,764.079468 
	C516.528687,756.712646 532.375000,749.682922 548.106445,742.406372 
	C572.433838,731.153870 596.631348,719.616455 621.043762,708.552551 
	C644.582214,697.884705 664.212524,682.567261 679.732422,661.840759 
	C691.892639,645.601013 704.455505,629.663147 716.812927,613.570740 
	C726.493286,600.964661 735.908386,588.146790 745.859619,575.759094 
	C754.338745,565.203918 754.289307,550.483459 746.842773,541.567200 
	C734.330322,526.585205 714.427795,527.517395 702.144653,543.556274 
	C691.114441,557.958984 680.348022,572.563477 669.435547,587.056519 
	C658.225830,601.944397 647.460083,617.204651 635.551697,631.512573 
	C629.407166,638.895264 621.784302,645.435181 613.775818,650.776001 
	C604.769592,656.782227 594.658142,661.176270 584.875061,665.959839 
	C575.504639,670.541626 565.938782,674.723694 556.173706,679.212524 
	C556.100952,677.921204 555.866638,677.061279 556.037537,676.291382 
	C557.989502,667.498901 559.762817,658.656677 562.059082,649.953186 
	C565.165100,638.180237 567.932251,626.231018 572.235413,614.884827 
	C576.714294,603.075500 585.470581,593.746887 594.022217,584.631104 
	C600.240356,578.002869 607.054260,571.918945 613.770386,565.775879 
	C623.354858,557.009216 632.729797,547.957947 642.847351,539.842346 
	C659.674194,526.344971 676.744751,513.114624 694.213379,500.463165 
	C718.096313,483.166199 742.439392,466.561279 765.155090,447.636078 
	C781.249207,434.227509 796.805359,420.389313 810.674683,404.720703 
	C815.502869,399.266083 819.839417,393.348633 824.105225,387.429718 
	C832.398560,375.922424 839.343506,363.699005 845.210022,350.695435 
	C855.579834,327.710205 861.363403,303.641022 862.800049,278.705414 
	C864.102295,256.102661 862.327637,233.705582 856.247375,211.519272 
	C848.750916,184.165710 835.635315,160.082855 817.243286,138.985870 
	C797.727112,116.599480 773.953064,99.662453 746.192200,88.651451 
	C725.092102,80.282372 703.229797,75.118965 680.491455,75.071609 
	C594.827942,74.893173 509.163849,75.000000 422.500000,75.000000 
M2125.000000,315.500000 
	C2125.459717,379.883484 2123.901611,444.270203 2125.580322,508.745667 
	C2123.569336,506.338715 2122.278320,503.752930 2120.723633,501.336517 
	C2098.943848,467.483765 2077.118652,433.660339 2055.324951,399.816528 
	C2042.775757,380.328400 2030.314819,360.783234 2017.722290,341.323242 
	C2001.010376,315.497955 1983.508301,290.147552 1967.792847,263.732178 
	C1961.562256,253.259399 1954.709961,250.057709 1943.199463,250.752289 
	C1926.976685,251.731155 1910.650757,251.000000 1894.197998,251.000000 
	C1894.197998,363.815094 1894.197998,476.208771 1894.197998,589.000000 
	C1910.511108,589.000000 1926.634033,588.789246 1942.745483,589.123047 
	C1947.860352,589.228943 1949.123047,587.739685 1949.112549,582.701355 
	C1948.951050,505.212830 1949.005859,427.723877 1948.965942,350.235046 
	C1948.964966,348.302765 1948.258667,346.374359 1948.223999,344.438019 
	C1948.120117,338.637238 1948.186523,332.833405 1948.186523,327.030762 
	C1953.876831,334.921722 1958.378906,343.022522 1963.397339,350.789703 
	C1980.790405,377.710449 1998.334717,404.533691 2015.875610,431.358673 
	C2032.540771,456.844391 2049.345215,482.239380 2065.957031,507.759827 
	C2082.730957,533.529602 2099.340332,559.406677 2116.033691,585.229065 
	C2117.519531,587.527527 2118.927734,589.200195 2122.419922,589.139404 
	C2139.912109,588.834961 2157.413574,588.896423 2174.909424,589.080139 
	C2178.795654,589.120972 2180.085449,588.096558 2180.081543,584.039246 
	C2179.979248,474.721710 2179.981934,365.404053 2180.074463,256.086517 
	C2180.077881,252.200653 2179.095215,250.851181 2175.034668,250.911499 
	C2160.040039,251.134171 2145.038330,251.124573 2130.043457,250.916061 
	C2126.089355,250.861069 2124.875732,252.009277 2124.914307,256.009247 
	C2125.103271,275.504608 2125.000000,295.002808 2125.000000,315.500000 
M2377.361328,342.000000 
	C2362.245850,341.762512 2347.318848,342.583130 2332.397949,345.831787 
	C2307.084961,351.343079 2285.751953,363.447906 2268.896240,382.816193 
	C2251.097656,403.267761 2243.441895,428.190582 2241.220215,454.678345 
	C2240.244385,466.311646 2241.318115,478.168549 2242.080566,489.883606 
	C2243.172119,506.653076 2248.334717,522.278809 2256.459473,536.999023 
	C2267.321289,556.677979 2283.150635,571.163757 2302.926025,581.350647 
	C2318.028320,589.130371 2334.533447,592.643738 2351.268311,593.805542 
	C2369.926758,595.100830 2388.509521,593.518860 2406.622070,588.042175 
	C2421.151855,583.648743 2434.422363,576.655762 2445.989258,567.161621 
	C2456.333008,558.671692 2464.665283,548.171448 2471.486084,536.327637 
	C2481.643799,518.690674 2486.531006,499.649292 2487.798584,479.763245 
	C2488.894287,462.567810 2488.053955,445.352600 2484.135742,428.313354 
	C2479.783936,409.387238 2471.980957,392.292328 2459.172607,377.808014 
	C2437.780762,353.617371 2409.675293,344.005066 2377.361328,342.000000 
M2898.129639,530.342896 
	C2885.006348,539.742554 2870.410645,545.603149 2854.678711,549.068298 
	C2839.781006,552.349731 2824.786621,552.663513 2809.990479,549.811096 
	C2790.924316,546.135498 2775.368164,536.436707 2765.631104,519.053101 
	C2759.446777,508.012909 2756.935547,495.966492 2756.980225,482.915710 
	C2811.549561,482.915710 2865.616699,482.915710 2920.920898,482.915710 
	C2919.934570,466.191254 2919.325684,449.889130 2917.917969,433.656250 
	C2916.452393,416.753937 2910.900879,401.093353 2902.158203,386.467651 
	C2891.854248,369.230042 2877.576660,356.414673 2859.052979,349.197479 
	C2837.443359,340.777924 2814.631348,339.269775 2792.126465,344.235046 
	C2756.232422,352.154205 2730.510742,373.810852 2713.967285,406.483917 
	C2706.367188,421.493439 2702.285645,437.659668 2701.224365,454.236603 
	C2700.016602,473.100708 2700.476318,492.098083 2705.046631,510.655121 
	C2709.610840,529.189880 2717.217529,546.333313 2730.199463,560.583130 
	C2739.470215,570.759216 2750.417480,578.634216 2763.242676,584.162415 
	C2777.135986,590.151245 2791.586426,593.228271 2806.480713,593.875305 
	C2825.033203,594.681152 2843.485352,593.403198 2861.688232,589.079346 
	C2875.075928,585.899231 2887.945801,581.657532 2899.535400,574.096191 
	C2900.584473,573.411804 2901.881836,572.053101 2901.893555,570.994202 
	C2902.051270,557.071289 2901.998779,543.145874 2901.998779,528.746826 
	C2900.569336,529.322754 2899.715088,529.666931 2898.129639,530.342896 
M1506.453125,344.999969 
	C1497.050171,344.000000 1487.664429,342.485657 1478.238647,342.172668 
	C1471.441528,341.946930 1464.565796,343.126648 1457.769531,344.017883 
	C1439.607544,346.399506 1423.588501,353.636780 1409.281738,365.121490 
	C1390.246216,380.402161 1376.766724,399.397827 1369.081665,422.570251 
	C1363.896851,438.203369 1362.548218,454.444092 1362.221069,470.671082 
	C1362.021851,480.558167 1363.706055,490.529633 1365.067017,500.390991 
	C1367.215942,515.961365 1371.922607,530.767029 1380.050293,544.317444 
	C1390.449951,561.656006 1404.791504,574.749207 1423.025024,583.532043 
	C1436.460449,590.003662 1450.896606,592.843140 1465.554443,593.852051 
	C1482.510376,595.019104 1499.541504,593.952637 1516.232910,590.785767 
	C1532.656738,587.669678 1548.626099,582.760681 1562.751465,573.424133 
	C1562.751465,558.709106 1562.751465,543.964966 1562.751465,529.336060 
	C1555.159302,533.374634 1547.799194,537.493408 1540.261841,541.256775 
	C1524.400635,549.176392 1507.201050,551.394409 1489.825562,551.807251 
	C1482.786377,551.974365 1475.589355,550.473328 1468.648804,548.911255 
	C1445.498657,543.700623 1429.815552,529.607544 1422.264404,507.229065 
	C1419.701172,499.632935 1419.359741,491.287048 1417.934814,482.880524 
	C1473.069702,482.880524 1527.331909,482.880524 1582.842651,482.880524 
	C1581.863037,465.295471 1581.956055,447.896423 1579.640747,430.823975 
	C1577.373047,414.101685 1571.698853,398.093323 1562.291992,383.690796 
	C1555.959106,373.994720 1548.278076,365.646484 1538.800781,358.994354 
	C1529.230713,352.277069 1518.687378,347.702087 1506.453125,344.999969 
M1785.539673,353.959351 
	C1781.163574,351.972321 1776.927002,349.557861 1772.386475,348.074158 
	C1755.106689,342.427582 1737.474487,340.690796 1719.299316,342.856964 
	C1706.980835,344.325104 1695.218506,347.322052 1684.069092,352.511169 
	C1668.062500,359.960907 1655.561279,371.747833 1644.228516,385.106537 
	C1635.606689,395.269958 1629.468994,406.852203 1625.254150,419.122192 
	C1618.784912,437.955566 1615.985840,457.593384 1618.034302,477.619232 
	C1619.176514,488.787140 1619.883789,500.081970 1622.157715,511.035095 
	C1627.453125,536.542175 1640.331665,557.794189 1661.223633,573.559387 
	C1679.616943,587.439087 1701.072266,593.038513 1723.771118,593.886414 
	C1733.161743,594.237244 1742.627686,593.676147 1752.007080,592.898010 
	C1760.406738,592.201172 1768.806030,591.001038 1777.078003,589.374756 
	C1791.517822,586.535950 1805.164673,581.404968 1817.640503,573.571228 
	C1817.640503,558.842285 1817.640503,543.987122 1817.640503,529.339905 
	C1809.989990,533.445007 1802.651489,537.669312 1795.067261,541.392761 
	C1779.171387,549.196655 1761.966919,551.437317 1744.580322,551.811401 
	C1737.703979,551.959290 1730.690918,550.415588 1723.897827,548.923889 
	C1700.702881,543.830322 1684.958374,529.846863 1677.376465,507.446198 
	C1674.786621,499.794525 1674.355957,491.411987 1672.845337,482.831879 
	C1727.985229,482.831879 1782.387085,482.831879 1836.844482,482.831879 
	C1837.437622,459.591980 1837.492554,436.810425 1830.991211,414.597229 
	C1826.076050,397.803467 1818.812622,382.176971 1806.120483,369.833923 
	C1800.090942,363.970367 1792.939575,359.260284 1785.539673,353.959351 
M1029.500000,251.000000 
	C1016.070740,251.000000 1002.641479,251.000000 989.271790,251.000000 
	C989.271790,363.965820 989.271790,476.358185 989.271790,589.000000 
	C1006.513489,589.000000 1023.486572,588.858582 1040.454346,589.096985 
	C1044.835449,589.158508 1046.111938,587.926636 1046.095703,583.493591 
	C1045.937012,540.167847 1046.000000,496.841217 1046.000000,453.514862 
	C1046.000000,451.748962 1046.000000,449.983093 1046.000000,448.000000 
	C1048.042114,448.000000 1049.519043,448.000000 1050.995972,448.000000 
	C1086.323608,448.000000 1121.651489,447.940979 1156.978516,448.081940 
	C1160.956787,448.097809 1162.287476,446.952362 1162.078369,442.966370 
	C1161.773315,437.149963 1162.000000,431.305725 1162.000000,425.473328 
	C1162.000000,417.044495 1162.000000,408.615692 1162.000000,399.805023 
	C1123.004883,399.805023 1084.602417,399.805023 1046.293579,399.805023 
	C1046.293579,366.341125 1046.293579,333.272675 1046.293579,299.812347 
	C1087.987915,299.812347 1129.390015,299.812347 1170.707520,299.812347 
	C1170.707520,283.345764 1170.707520,267.274841 1170.707520,251.000000 
	C1123.776855,251.000000 1077.138428,251.000000 1029.500000,251.000000 
M3053.943604,498.429596 
	C3056.435547,500.229279 3058.854736,502.141083 3061.432129,503.808685 
	C3071.238281,510.153839 3073.920654,519.503296 3071.885742,530.265686 
	C3070.152832,539.431152 3064.001709,545.154541 3055.193848,548.008179 
	C3041.536377,552.433105 3027.714844,553.787964 3013.307373,552.183472 
	C2998.453857,550.529419 2984.623535,546.402832 2971.660645,539.185364 
	C2966.527832,536.327515 2961.605957,533.091003 2956.232178,529.809753 
	C2956.232178,546.987915 2956.232178,563.741394 2956.232178,580.523315 
	C2969.914551,587.631592 2996.965576,594.087952 3013.801514,593.953674 
	C3023.054932,593.879883 3032.308838,593.427246 3041.554443,592.980652 
	C3059.730957,592.102600 3076.964355,587.447144 3092.784912,578.525635 
	C3104.820801,571.738525 3114.748291,562.511597 3121.042236,549.830627 
	C3125.868652,540.106567 3126.938477,529.852539 3127.166016,519.106506 
	C3127.603516,498.454620 3118.158203,482.828125 3102.878174,470.686249 
	C3089.874023,460.352692 3074.475098,453.877655 3058.962402,447.935242 
	C3048.046143,443.753479 3037.116943,439.541962 3026.477783,434.716858 
	C3016.336670,430.117584 3010.905273,420.396515 3011.562500,410.923218 
	C3012.402832,398.812988 3019.514893,391.997284 3030.118164,387.992188 
	C3042.033203,383.491608 3054.197754,382.370697 3066.978516,383.817139 
	C3083.335693,385.668335 3098.497314,390.091339 3112.091064,399.513245 
	C3112.748779,399.969238 3113.854492,399.778900 3114.999756,399.920197 
	C3114.999756,384.600739 3115.081787,369.608856 3114.847412,354.621918 
	C3114.828125,353.396484 3112.867676,351.621735 3111.440918,351.088898 
	C3098.946533,346.422394 3085.979736,344.227142 3072.694824,342.814117 
	C3054.342285,340.862030 3036.331055,342.135406 3018.535645,346.294189 
	C3003.974121,349.697205 2990.583984,356.316650 2979.059570,365.738373 
	C2970.375000,372.838287 2963.499756,381.764771 2959.910400,392.874054 
	C2956.818115,402.445038 2955.898682,411.976868 2956.836914,422.044037 
	C2958.023682,434.780487 2962.452148,445.803680 2970.833740,455.314880 
	C2984.032471,470.292480 3001.789551,477.820801 3019.728516,484.987427 
	C3030.874023,489.440308 3042.101807,493.687927 3053.943604,498.429596 
M2636.683105,548.999939 
	C2633.770264,548.156067 2630.670410,547.700012 2627.977051,546.401123 
	C2616.272949,540.756775 2613.324219,529.706787 2613.190918,518.432678 
	C2612.706787,477.439728 2612.997559,436.437653 2613.010010,395.438995 
	C2613.010498,394.008362 2613.158447,392.577789 2613.258545,390.772095 
	C2632.360596,390.772095 2651.102295,390.772095 2669.681641,390.772095 
	C2669.681641,375.963196 2669.681641,361.556793 2669.681641,346.756592 
	C2650.623779,346.756592 2631.882324,346.756592 2612.796875,346.756592 
	C2612.796875,323.269073 2612.796875,300.180878 2612.796875,276.375092 
	C2593.840332,281.785797 2575.399658,287.049194 2556.834961,292.348083 
	C2556.834961,310.750458 2556.834961,328.695160 2556.834961,347.000000 
	C2554.949707,347.000000 2553.323486,347.000000 2551.697266,347.000000 
	C2541.531006,347.000031 2531.362061,346.889496 2521.201416,347.126953 
	C2519.781494,347.160156 2517.202393,348.878845 2517.183105,349.856964 
	C2516.916260,363.462280 2517.002686,377.074524 2517.002686,391.080566 
	C2530.543701,391.080566 2543.620605,391.080566 2557.000000,391.080566 
	C2557.000000,393.110352 2557.000000,394.743073 2557.000000,396.375793 
	C2557.000000,433.707886 2556.739258,471.042786 2557.137695,508.370636 
	C2557.282471,521.952637 2558.282471,535.620178 2560.201660,549.061829 
	C2562.104492,562.391602 2569.491455,572.893616 2580.381104,581.110901 
	C2592.905273,590.561768 2607.474609,592.826294 2622.367188,593.872314 
	C2628.564453,594.307617 2634.857422,593.254944 2641.112305,593.017883 
	C2651.258301,592.633240 2660.862793,590.280151 2669.916504,585.606262 
	C2669.916504,571.153015 2669.916504,556.837524 2669.916504,541.951599 
	C2659.863281,548.363586 2649.312744,551.646912 2636.683105,548.999939 
M1298.111328,394.365723 
	C1312.471558,391.813599 1326.540771,391.483063 1339.991943,400.436279 
	C1339.991943,383.047119 1340.028320,366.302917 1339.890503,349.560120 
	C1339.883179,348.669250 1338.543701,347.241333 1337.587524,346.999207 
	C1332.934448,345.820923 1328.162842,345.114075 1323.503174,343.958099 
	C1312.944702,341.338715 1303.143433,344.309967 1293.932007,348.710358 
	C1276.908203,356.842682 1265.861206,370.673645 1258.952148,388.015961 
	C1258.499390,389.152161 1257.695679,390.148621 1257.055176,391.210083 
	C1256.000000,378.132782 1255.815430,365.504364 1256.098877,352.886475 
	C1256.199707,348.401581 1255.164429,346.776459 1250.333252,346.882111 
	C1235.512085,347.206146 1220.676147,347.170776 1205.852905,346.897552 
	C1201.316650,346.813904 1199.882812,347.932648 1199.892334,352.697601 
	C1200.044678,429.670990 1199.998779,506.644775 1200.010010,583.618469 
	C1200.010254,585.043945 1200.157593,586.469421 1200.223999,587.671997 
	C1219.064209,587.671997 1237.466431,587.671997 1256.000000,587.671997 
	C1256.000000,545.369446 1255.970825,503.394714 1256.048218,461.420197 
	C1256.055420,457.511963 1256.347168,453.519928 1257.176025,449.712524 
	C1260.313477,435.301697 1264.968384,421.593628 1274.912354,410.110291 
	C1281.144043,402.914154 1288.522461,397.841187 1298.111328,394.365723 
M1010.411682,796.069885 
	C1010.254822,796.680054 1010.097961,797.290283 1009.941101,797.900513 
	C1010.311035,797.500732 1010.680969,797.100952 1010.411682,796.069885 
z"/>
<path fill="#FFFFFF" opacity="1.000000" stroke="none" 
	d="
M423.000000,75.000000 
	C509.163849,75.000000 594.827942,74.893173 680.491455,75.071609 
	C703.229797,75.118965 725.092102,80.282372 746.192200,88.651451 
	C773.953064,99.662453 797.727112,116.599480 817.243286,138.985870 
	C835.635315,160.082855 848.750916,184.165710 856.247375,211.519272 
	C862.327637,233.705582 864.102295,256.102661 862.800049,278.705414 
	C861.363403,303.641022 855.579834,327.710205 845.210022,350.695435 
	C839.343506,363.699005 832.398560,375.922424 824.105225,387.429718 
	C819.839417,393.348633 815.502869,399.266083 810.674683,404.720703 
	C796.805359,420.389313 781.249207,434.227509 765.155090,447.636078 
	C742.439392,466.561279 718.096313,483.166199 694.213379,500.463165 
	C676.744751,513.114624 659.674194,526.344971 642.847351,539.842346 
	C632.729797,547.957947 623.354858,557.009216 613.770386,565.775879 
	C607.054260,571.918945 600.240356,578.002869 594.022217,584.631104 
	C585.470581,593.746887 576.714294,603.075500 572.235413,614.884827 
	C567.932251,626.231018 565.165100,638.180237 562.059082,649.953186 
	C559.762817,658.656677 557.989502,667.498901 556.037537,676.291382 
	C555.866638,677.061279 556.100952,677.921204 556.173706,679.212524 
	C565.938782,674.723694 575.504639,670.541626 584.875061,665.959839 
	C594.658142,661.176270 604.769592,656.782227 613.775818,650.776001 
	C621.784302,645.435181 629.407166,638.895264 635.551697,631.512573 
	C647.460083,617.204651 658.225830,601.944397 669.435547,587.056519 
	C680.348022,572.563477 691.114441,557.958984 702.144653,543.556274 
	C714.427795,527.517395 734.330322,526.585205 746.842773,541.567200 
	C754.289307,550.483459 754.338745,565.203918 745.859619,575.759094 
	C735.908386,588.146790 726.493286,600.964661 716.812927,613.570740 
	C704.455505,629.663147 691.892639,645.601013 679.732422,661.840759 
	C664.212524,682.567261 644.582214,697.884705 621.043762,708.552551 
	C596.631348,719.616455 572.433838,731.153870 548.106445,742.406372 
	C532.375000,749.682922 516.528687,756.712646 500.840302,764.079468 
	C495.629944,766.526123 490.981720,766.782288 486.445526,762.930542 
	C482.080994,759.224548 481.406189,754.877625 482.898163,749.365967 
	C487.097107,733.853943 490.904877,718.234009 494.723053,702.621460 
	C501.869019,673.401245 508.990234,644.174500 515.973694,614.915161 
	C520.695007,595.133789 529.297974,577.248657 542.680664,562.001587 
	C553.804932,549.327576 565.203186,536.782166 577.524902,525.301086 
	C591.005249,512.740417 605.228210,500.861633 619.937744,489.759033 
	C650.933899,466.363434 682.701355,443.988617 713.659424,420.544128 
	C728.015991,409.671906 741.123413,397.162018 754.974487,385.607086 
	C767.396912,375.244019 777.296692,362.781952 785.943542,349.268768 
	C795.364319,334.546021 802.033142,318.567047 805.891968,301.547455 
	C807.821350,293.037628 809.095032,284.319885 809.867249,275.625305 
	C810.513611,268.347900 810.071106,260.966644 809.985535,253.632843 
	C809.789917,236.863525 805.033813,221.209839 798.504639,205.924515 
	C790.499329,187.183640 778.206238,171.560822 762.859497,158.597610 
	C747.324402,145.475357 729.312439,136.656708 709.349792,131.947098 
	C695.089539,128.582794 680.696167,128.827713 666.766235,129.121399 
	C668.875183,137.241867 670.950256,145.267822 673.044739,153.288742 
	C676.789368,167.629471 675.251587,181.854111 671.524719,195.855789 
	C667.007874,212.825607 658.162476,227.506699 645.121826,239.203293 
	C631.156860,251.728958 614.928040,260.069092 595.916321,261.973328 
	C590.687561,262.497070 585.423584,262.953094 580.175354,262.957153 
	C500.511353,263.018799 420.847260,263.048126 341.183319,262.949707 
	C328.795776,262.934418 317.080322,272.540375 317.824921,285.968781 
	C318.607025,300.072998 318.000000,314.254211 318.000000,329.000000 
	C319.946442,329.000000 321.708221,329.000000 323.470001,329.000000 
	C389.467834,329.000000 455.467651,329.288177 521.462341,328.835388 
	C543.017822,328.687500 560.974670,341.891632 566.918579,362.468842 
	C568.118530,366.622864 568.806580,371.050690 568.908203,375.371643 
	C569.178467,386.864899 569.295715,398.378021 568.934448,409.866272 
	C568.305908,429.854706 561.542908,447.665558 549.142151,463.407471 
	C535.031738,481.319733 516.544983,492.245972 494.667847,497.595551 
	C488.700012,499.054871 482.421722,499.872437 476.281372,499.897980 
	C430.950317,500.086548 385.617950,500.057129 340.286316,499.962280 
	C327.985687,499.936554 318.916870,508.091003 318.948486,521.167664 
	C319.073822,572.999023 319.419983,624.835876 318.795715,676.660034 
	C318.541809,697.741943 310.446350,716.461365 296.796448,732.859070 
	C285.320465,746.645325 270.975067,755.919556 254.169052,761.144348 
	C245.596817,763.809387 236.375595,765.848022 227.479858,765.730713 
	C203.211990,765.410828 181.638245,757.536011 163.680054,740.350342 
	C149.774521,727.043030 141.304718,710.875305 136.414597,692.664551 
	C134.824356,686.742615 134.101974,680.411133 134.096680,674.266052 
	C133.972015,529.437500 133.819855,384.608337 134.306519,239.781372 
	C134.350357,226.734024 137.797104,213.456421 141.250824,200.716049 
	C147.150589,178.952515 157.503189,159.035004 171.434097,141.344864 
	C184.165161,125.178368 199.575500,111.734299 217.245270,100.927429 
	C232.599609,91.536667 249.045151,84.694023 266.403687,80.470863 
	C276.767914,77.949348 287.597870,76.385201 298.252441,76.183510 
	C339.660919,75.399597 381.082977,75.333328 423.000000,75.000000 
M338.611938,210.000000 
	C420.444763,210.000000 502.277588,210.005341 584.110413,209.993469 
	C594.743774,209.991928 603.963989,205.637939 610.921509,198.245544 
	C620.798706,187.750961 624.320923,174.800278 620.985107,160.421799 
	C616.494019,141.063187 600.614685,129.089127 581.788208,129.059860 
	C494.622437,128.924377 407.456238,128.971161 320.290283,129.043716 
	C311.373566,129.051132 302.452179,129.565720 293.542114,130.022995 
	C280.285553,130.703339 267.901154,135.074570 256.117004,140.586914 
	C237.276779,149.399887 221.722397,162.317963 209.686340,179.628525 
	C196.805008,198.154831 188.292038,218.445160 188.223877,240.815918 
	C187.785706,384.646881 188.011536,528.479797 187.978043,672.312073 
	C187.975372,683.760315 191.763077,693.209473 199.868088,701.643677 
	C210.912903,713.136963 231.210815,714.878906 243.713242,708.679871 
	C259.630341,700.787842 265.847443,686.926697 265.919434,670.112671 
	C266.140625,618.447327 265.999481,566.780457 266.000366,515.114136 
	C266.000549,503.694824 269.249664,493.281616 274.902191,483.351166 
	C289.344574,457.978516 311.908417,446.491669 340.139374,446.147400 
	C385.298981,445.596741 430.470642,446.108856 475.636353,445.941132 
	C491.503632,445.882233 502.947632,437.881165 510.861908,424.472076 
	C518.753662,411.101318 515.195129,396.459778 516.068970,382.000000 
	C513.648926,382.000000 511.838776,382.000000 510.028625,382.000000 
	C437.029144,382.000000 364.029572,381.934570 291.030334,382.063324 
	C278.618378,382.085236 265.854462,369.399261 265.943817,357.065826 
	C266.129700,331.400696 266.130463,305.732361 265.956207,280.067078 
	C265.830627,261.570251 272.830902,245.890625 285.047607,232.649200 
	C299.073547,217.446823 317.379486,211.211304 338.611938,210.000000 
z"/>
<path fill="#FFFFFF" opacity="1.000000" stroke="none" 
	d="
M2125.000000,315.000000 
	C2125.000000,295.002808 2125.103271,275.504608 2124.914307,256.009247 
	C2124.875732,252.009277 2126.089355,250.861069 2130.043457,250.916061 
	C2145.038330,251.124573 2160.040039,251.134171 2175.034668,250.911499 
	C2179.095215,250.851181 2180.077881,252.200653 2180.074463,256.086517 
	C2179.981934,365.404053 2179.979248,474.721710 2180.081543,584.039246 
	C2180.085449,588.096558 2178.795654,589.120972 2174.909424,589.080139 
	C2157.413574,588.896423 2139.912109,588.834961 2122.419922,589.139404 
	C2118.927734,589.200195 2117.519531,587.527527 2116.033691,585.229065 
	C2099.340332,559.406677 2082.730957,533.529602 2065.957031,507.759827 
	C2049.345215,482.239380 2032.540771,456.844391 2015.875610,431.358673 
	C1998.334717,404.533691 1980.790405,377.710449 1963.397339,350.789703 
	C1958.378906,343.022522 1953.876831,334.921722 1948.186523,327.030762 
	C1948.186523,332.833405 1948.120117,338.637238 1948.223999,344.438019 
	C1948.258667,346.374359 1948.964966,348.302765 1948.965942,350.235046 
	C1949.005859,427.723877 1948.951050,505.212830 1949.112549,582.701355 
	C1949.123047,587.739685 1947.860352,589.228943 1942.745483,589.123047 
	C1926.634033,588.789246 1910.511108,589.000000 1894.197998,589.000000 
	C1894.197998,476.208771 1894.197998,363.815094 1894.197998,251.000000 
	C1910.650757,251.000000 1926.976685,251.731155 1943.199463,250.752289 
	C1954.709961,250.057709 1961.562256,253.259399 1967.792847,263.732178 
	C1983.508301,290.147552 2001.010376,315.497955 2017.722290,341.323242 
	C2030.314819,360.783234 2042.775757,380.328400 2055.324951,399.816528 
	C2077.118652,433.660339 2098.943848,467.483765 2120.723633,501.336517 
	C2122.278320,503.752930 2123.569336,506.338715 2125.580322,508.745667 
	C2123.901611,444.270203 2125.459717,379.883484 2125.000000,315.000000 
z"/>
<path fill="#FFFFFF" opacity="1.000000" stroke="none" 
	d="
M2377.843018,342.000000 
	C2409.675293,344.005066 2437.780762,353.617371 2459.172607,377.808014 
	C2471.980957,392.292328 2479.783936,409.387238 2484.135742,428.313354 
	C2488.053955,445.352600 2488.894287,462.567810 2487.798584,479.763245 
	C2486.531006,499.649292 2481.643799,518.690674 2471.486084,536.327637 
	C2464.665283,548.171448 2456.333008,558.671692 2445.989258,567.161621 
	C2434.422363,576.655762 2421.151855,583.648743 2406.622070,588.042175 
	C2388.509521,593.518860 2369.926758,595.100830 2351.268311,593.805542 
	C2334.533447,592.643738 2318.028320,589.130371 2302.926025,581.350647 
	C2283.150635,571.163757 2267.321289,556.677979 2256.459473,536.999023 
	C2248.334717,522.278809 2243.172119,506.653076 2242.080566,489.883606 
	C2241.318115,478.168549 2240.244385,466.311646 2241.220215,454.678345 
	C2243.441895,428.190582 2251.097656,403.267761 2268.896240,382.816193 
	C2285.751953,363.447906 2307.084961,351.343079 2332.397949,345.831787 
	C2347.318848,342.583130 2362.245850,341.762512 2377.843018,342.000000 
M2425.589844,508.929230 
	C2430.145996,494.272614 2431.597900,479.309937 2431.156494,463.961182 
	C2430.853760,453.439026 2429.813721,443.143707 2426.976807,433.052368 
	C2421.126465,412.244080 2409.236572,396.558136 2388.067871,389.690552 
	C2378.178955,386.482330 2367.974121,385.537018 2357.302734,386.762512 
	C2343.049805,388.399292 2330.668213,393.328064 2320.431152,403.164246 
	C2303.740723,419.201721 2298.564697,440.066711 2297.094971,462.129059 
	C2296.243652,474.910034 2297.512451,487.619324 2300.982666,500.049530 
	C2305.353516,515.705811 2313.576416,528.687134 2326.808838,538.381653 
	C2335.496094,544.745911 2345.230225,547.651245 2355.836182,549.208862 
	C2367.804443,550.966614 2379.263184,549.801758 2390.407471,545.803772 
	C2407.881104,539.535095 2418.832275,526.719971 2425.589844,508.929230 
z"/>
<path fill="#FFFFFF" opacity="1.000000" stroke="none" 
	d="
M2898.495117,530.177002 
	C2899.715088,529.666931 2900.569336,529.322754 2901.998779,528.746826 
	C2901.998779,543.145874 2902.051270,557.071289 2901.893555,570.994202 
	C2901.881836,572.053101 2900.584473,573.411804 2899.535400,574.096191 
	C2887.945801,581.657532 2875.075928,585.899231 2861.688232,589.079346 
	C2843.485352,593.403198 2825.033203,594.681152 2806.480713,593.875305 
	C2791.586426,593.228271 2777.135986,590.151245 2763.242676,584.162415 
	C2750.417480,578.634216 2739.470215,570.759216 2730.199463,560.583130 
	C2717.217529,546.333313 2709.610840,529.189880 2705.046631,510.655121 
	C2700.476318,492.098083 2700.016602,473.100708 2701.224365,454.236603 
	C2702.285645,437.659668 2706.367188,421.493439 2713.967285,406.483917 
	C2730.510742,373.810852 2756.232422,352.154205 2792.126465,344.235046 
	C2814.631348,339.269775 2837.443359,340.777924 2859.052979,349.197479 
	C2877.576660,356.414673 2891.854248,369.230042 2902.158203,386.467651 
	C2910.900879,401.093353 2916.452393,416.753937 2917.917969,433.656250 
	C2919.325684,449.889130 2919.934570,466.191254 2920.920898,482.915710 
	C2865.616699,482.915710 2811.549561,482.915710 2756.980225,482.915710 
	C2756.935547,495.966492 2759.446777,508.012909 2765.631104,519.053101 
	C2775.368164,536.436707 2790.924316,546.135498 2809.990479,549.811096 
	C2824.786621,552.663513 2839.781006,552.349731 2854.678711,549.068298 
	C2870.410645,545.603149 2885.006348,539.742554 2898.495117,530.177002 
M2778.500000,444.000000 
	C2807.913086,444.000000 2837.326172,444.000000 2867.383301,444.000000 
	C2866.540771,437.693176 2865.785156,431.924744 2864.997070,426.160828 
	C2863.268799,413.521240 2858.015869,402.195618 2848.355713,394.219971 
	C2832.042969,380.751404 2813.229736,379.568115 2794.070557,387.555603 
	C2778.193848,394.174713 2768.578369,407.183960 2762.290527,422.605103 
	C2759.577148,429.260742 2758.367676,436.529694 2756.344971,444.000000 
	C2764.212402,444.000000 2770.856201,444.000000 2778.500000,444.000000 
z"/>
<path fill="#FFFFFF" opacity="1.000000" stroke="none" 
	d="
M1506.887207,345.001038 
	C1518.687378,347.702087 1529.230713,352.277069 1538.800781,358.994354 
	C1548.278076,365.646484 1555.959106,373.994720 1562.291992,383.690796 
	C1571.698853,398.093323 1577.373047,414.101685 1579.640747,430.823975 
	C1581.956055,447.896423 1581.863037,465.295471 1582.842651,482.880524 
	C1527.331909,482.880524 1473.069702,482.880524 1417.934814,482.880524 
	C1419.359741,491.287048 1419.701172,499.632935 1422.264404,507.229065 
	C1429.815552,529.607544 1445.498657,543.700623 1468.648804,548.911255 
	C1475.589355,550.473328 1482.786377,551.974365 1489.825562,551.807251 
	C1507.201050,551.394409 1524.400635,549.176392 1540.261841,541.256775 
	C1547.799194,537.493408 1555.159302,533.374634 1562.751465,529.336060 
	C1562.751465,543.964966 1562.751465,558.709106 1562.751465,573.424133 
	C1548.626099,582.760681 1532.656738,587.669678 1516.232910,590.785767 
	C1499.541504,593.952637 1482.510376,595.019104 1465.554443,593.852051 
	C1450.896606,592.843140 1436.460449,590.003662 1423.025024,583.532043 
	C1404.791504,574.749207 1390.449951,561.656006 1380.050293,544.317444 
	C1371.922607,530.767029 1367.215942,515.961365 1365.067017,500.390991 
	C1363.706055,490.529633 1362.021851,480.558167 1362.221069,470.671082 
	C1362.548218,454.444092 1363.896851,438.203369 1369.081665,422.570251 
	C1376.766724,399.397827 1390.246216,380.402161 1409.281738,365.121490 
	C1423.588501,353.636780 1439.607544,346.399506 1457.769531,344.017883 
	C1464.565796,343.126648 1471.441528,341.946930 1478.238647,342.172668 
	C1487.664429,342.485657 1497.050171,344.000000 1506.887207,345.001038 
M1465.072998,384.407806 
	C1437.486694,390.471375 1419.654419,420.808502 1419.494873,443.817261 
	C1455.889771,443.817261 1492.283936,443.817261 1528.388794,443.817261 
	C1528.249146,442.384064 1527.991943,441.102844 1528.020752,439.828064 
	C1528.285400,428.084991 1525.558960,417.007538 1519.915039,406.800171 
	C1513.848755,395.829041 1504.958984,388.254547 1492.505615,384.901184 
	C1483.592896,382.501251 1474.794067,382.642334 1465.072998,384.407806 
z"/>
<path fill="#FFFFFF" opacity="1.000000" stroke="none" 
	d="
M1785.918091,353.993469 
	C1792.939575,359.260284 1800.090942,363.970367 1806.120483,369.833923 
	C1818.812622,382.176971 1826.076050,397.803467 1830.991211,414.597229 
	C1837.492554,436.810425 1837.437622,459.591980 1836.844482,482.831879 
	C1782.387085,482.831879 1727.985229,482.831879 1672.845337,482.831879 
	C1674.355957,491.411987 1674.786621,499.794525 1677.376465,507.446198 
	C1684.958374,529.846863 1700.702881,543.830322 1723.897827,548.923889 
	C1730.690918,550.415588 1737.703979,551.959290 1744.580322,551.811401 
	C1761.966919,551.437317 1779.171387,549.196655 1795.067261,541.392761 
	C1802.651489,537.669312 1809.989990,533.445007 1817.640503,529.339905 
	C1817.640503,543.987122 1817.640503,558.842285 1817.640503,573.571228 
	C1805.164673,581.404968 1791.517822,586.535950 1777.078003,589.374756 
	C1768.806030,591.001038 1760.406738,592.201172 1752.007080,592.898010 
	C1742.627686,593.676147 1733.161743,594.237244 1723.771118,593.886414 
	C1701.072266,593.038513 1679.616943,587.439087 1661.223633,573.559387 
	C1640.331665,557.794189 1627.453125,536.542175 1622.157715,511.035095 
	C1619.883789,500.081970 1619.176514,488.787140 1618.034302,477.619232 
	C1615.985840,457.593384 1618.784912,437.955566 1625.254150,419.122192 
	C1629.468994,406.852203 1635.606689,395.269958 1644.228516,385.106537 
	C1655.561279,371.747833 1668.062500,359.960907 1684.069092,352.511169 
	C1695.218506,347.322052 1706.980835,344.325104 1719.299316,342.856964 
	C1737.474487,340.690796 1755.106689,342.427582 1772.386475,348.074158 
	C1776.927002,349.557861 1781.163574,351.972321 1785.918091,353.993469 
M1744.261841,384.001740 
	C1725.878296,380.832947 1709.525391,384.772736 1695.715210,397.774323 
	C1682.443359,410.269257 1676.078125,425.906525 1673.771118,443.769989 
	C1710.967529,443.769989 1747.325562,443.769989 1783.906982,443.769989 
	C1782.913574,436.594727 1782.336182,429.600159 1780.913452,422.781921 
	C1778.533569,411.375671 1773.696777,400.928284 1764.125000,393.916779 
	C1758.433594,389.747803 1751.505737,387.266846 1744.261841,384.001740 
z"/>
<path fill="#FFFFFF" opacity="1.000000" stroke="none" 
	d="
M1030.000000,251.000000 
	C1077.138428,251.000000 1123.776855,251.000000 1170.707520,251.000000 
	C1170.707520,267.274841 1170.707520,283.345764 1170.707520,299.812347 
	C1129.390015,299.812347 1087.987915,299.812347 1046.293579,299.812347 
	C1046.293579,333.272675 1046.293579,366.341125 1046.293579,399.805023 
	C1084.602417,399.805023 1123.004883,399.805023 1162.000000,399.805023 
	C1162.000000,408.615692 1162.000000,417.044495 1162.000000,425.473328 
	C1162.000000,431.305725 1161.773315,437.149963 1162.078369,442.966370 
	C1162.287476,446.952362 1160.956787,448.097809 1156.978516,448.081940 
	C1121.651489,447.940979 1086.323608,448.000000 1050.995972,448.000000 
	C1049.519043,448.000000 1048.042114,448.000000 1046.000000,448.000000 
	C1046.000000,449.983093 1046.000000,451.748962 1046.000000,453.514862 
	C1046.000000,496.841217 1045.937012,540.167847 1046.095703,583.493591 
	C1046.111938,587.926636 1044.835449,589.158508 1040.454346,589.096985 
	C1023.486572,588.858582 1006.513489,589.000000 989.271790,589.000000 
	C989.271790,476.358185 989.271790,363.965820 989.271790,251.000000 
	C1002.641479,251.000000 1016.070740,251.000000 1030.000000,251.000000 
z"/>
<path fill="#FFFFFF" opacity="1.000000" stroke="none" 
	d="
M3053.618164,498.228607 
	C3042.101807,493.687927 3030.874023,489.440308 3019.728516,484.987427 
	C3001.789551,477.820801 2984.032471,470.292480 2970.833740,455.314880 
	C2962.452148,445.803680 2958.023682,434.780487 2956.836914,422.044037 
	C2955.898682,411.976868 2956.818115,402.445038 2959.910400,392.874054 
	C2963.499756,381.764771 2970.375000,372.838287 2979.059570,365.738373 
	C2990.583984,356.316650 3003.974121,349.697205 3018.535645,346.294189 
	C3036.331055,342.135406 3054.342285,340.862030 3072.694824,342.814117 
	C3085.979736,344.227142 3098.946533,346.422394 3111.440918,351.088898 
	C3112.867676,351.621735 3114.828125,353.396484 3114.847412,354.621918 
	C3115.081787,369.608856 3114.999756,384.600739 3114.999756,399.920197 
	C3113.854492,399.778900 3112.748779,399.969238 3112.091064,399.513245 
	C3098.497314,390.091339 3083.335693,385.668335 3066.978516,383.817139 
	C3054.197754,382.370697 3042.033203,383.491608 3030.118164,387.992188 
	C3019.514893,391.997284 3012.402832,398.812988 3011.562500,410.923218 
	C3010.905273,420.396515 3016.336670,430.117584 3026.477783,434.716858 
	C3037.116943,439.541962 3048.046143,443.753479 3058.962402,447.935242 
	C3074.475098,453.877655 3089.874023,460.352692 3102.878174,470.686249 
	C3118.158203,482.828125 3127.603516,498.454620 3127.166016,519.106506 
	C3126.938477,529.852539 3125.868652,540.106567 3121.042236,549.830627 
	C3114.748291,562.511597 3104.820801,571.738525 3092.784912,578.525635 
	C3076.964355,587.447144 3059.730957,592.102600 3041.554443,592.980652 
	C3032.308838,593.427246 3023.054932,593.879883 3013.801514,593.953674 
	C2996.965576,594.087952 2969.914551,587.631592 2956.232178,580.523315 
	C2956.232178,563.741394 2956.232178,546.987915 2956.232178,529.809753 
	C2961.605957,533.091003 2966.527832,536.327515 2971.660645,539.185364 
	C2984.623535,546.402832 2998.453857,550.529419 3013.307373,552.183472 
	C3027.714844,553.787964 3041.536377,552.433105 3055.193848,548.008179 
	C3064.001709,545.154541 3070.152832,539.431152 3071.885742,530.265686 
	C3073.920654,519.503296 3071.238281,510.153839 3061.432129,503.808685 
	C3058.854736,502.141083 3056.435547,500.229279 3053.618164,498.228607 
z"/>
<path fill="#FFFFFF" opacity="1.000000" stroke="none" 
	d="
M2637.128418,549.000000 
	C2649.312744,551.646912 2659.863281,548.363586 2669.916504,541.951599 
	C2669.916504,556.837524 2669.916504,571.153015 2669.916504,585.606262 
	C2660.862793,590.280151 2651.258301,592.633240 2641.112305,593.017883 
	C2634.857422,593.254944 2628.564453,594.307617 2622.367188,593.872314 
	C2607.474609,592.826294 2592.905273,590.561768 2580.381104,581.110901 
	C2569.491455,572.893616 2562.104492,562.391602 2560.201660,549.061829 
	C2558.282471,535.620178 2557.282471,521.952637 2557.137695,508.370636 
	C2556.739258,471.042786 2557.000000,433.707886 2557.000000,396.375793 
	C2557.000000,394.743073 2557.000000,393.110352 2557.000000,391.080566 
	C2543.620605,391.080566 2530.543701,391.080566 2517.002686,391.080566 
	C2517.002686,377.074524 2516.916260,363.462280 2517.183105,349.856964 
	C2517.202393,348.878845 2519.781494,347.160156 2521.201416,347.126953 
	C2531.362061,346.889496 2541.531006,347.000031 2551.697266,347.000000 
	C2553.323486,347.000000 2554.949707,347.000000 2556.834961,347.000000 
	C2556.834961,328.695160 2556.834961,310.750458 2556.834961,292.348083 
	C2575.399658,287.049194 2593.840332,281.785797 2612.796875,276.375092 
	C2612.796875,300.180878 2612.796875,323.269073 2612.796875,346.756592 
	C2631.882324,346.756592 2650.623779,346.756592 2669.681641,346.756592 
	C2669.681641,361.556793 2669.681641,375.963196 2669.681641,390.772095 
	C2651.102295,390.772095 2632.360596,390.772095 2613.258545,390.772095 
	C2613.158447,392.577789 2613.010498,394.008362 2613.010010,395.438995 
	C2612.997559,436.437653 2612.706787,477.439728 2613.190918,518.432678 
	C2613.324219,529.706787 2616.272949,540.756775 2627.977051,546.401123 
	C2630.670410,547.700012 2633.770264,548.156067 2637.128418,549.000000 
z"/>
<path fill="#FFFFFF" opacity="1.000000" stroke="none" 
	d="
M1297.806885,394.655457 
	C1288.522461,397.841187 1281.144043,402.914154 1274.912354,410.110291 
	C1264.968384,421.593628 1260.313477,435.301697 1257.176025,449.712524 
	C1256.347168,453.519928 1256.055420,457.511963 1256.048218,461.420197 
	C1255.970825,503.394714 1256.000000,545.369446 1256.000000,587.671997 
	C1237.466431,587.671997 1219.064209,587.671997 1200.223999,587.671997 
	C1200.157593,586.469421 1200.010254,585.043945 1200.010010,583.618469 
	C1199.998779,506.644775 1200.044678,429.670990 1199.892334,352.697601 
	C1199.882812,347.932648 1201.316650,346.813904 1205.852905,346.897552 
	C1220.676147,347.170776 1235.512085,347.206146 1250.333252,346.882111 
	C1255.164429,346.776459 1256.199707,348.401581 1256.098877,352.886475 
	C1255.815430,365.504364 1256.000000,378.132782 1257.055176,391.210083 
	C1257.695679,390.148621 1258.499390,389.152161 1258.952148,388.015961 
	C1265.861206,370.673645 1276.908203,356.842682 1293.932007,348.710358 
	C1303.143433,344.309967 1312.944702,341.338715 1323.503174,343.958099 
	C1328.162842,345.114075 1332.934448,345.820923 1337.587524,346.999207 
	C1338.543701,347.241333 1339.883179,348.669250 1339.890503,349.560120 
	C1340.028320,366.302917 1339.991943,383.047119 1339.991943,400.436279 
	C1326.540771,391.483063 1312.471558,391.813599 1297.806885,394.655457 
z"/>
<path fill="#BEBFC2" opacity="1.000000" stroke="none" 
	d="
M1010.731323,796.385498 
	C1010.680969,797.100952 1010.311035,797.500732 1009.941040,797.900513 
	C1010.097961,797.290283 1010.254822,796.680054 1010.731323,796.385498 
z"/>
<path fill="#000000" opacity="1.000000" stroke="none" 
	d="
M338.128540,210.000000 
	C317.379486,211.211304 299.073547,217.446823 285.047607,232.649200 
	C272.830902,245.890625 265.830627,261.570251 265.956207,280.067078 
	C266.130463,305.732361 266.129700,331.400696 265.943817,357.065826 
	C265.854462,369.399261 278.618378,382.085236 291.030334,382.063324 
	C364.029572,381.934570 437.029144,382.000000 510.028625,382.000000 
	C511.838776,382.000000 513.648926,382.000000 516.068970,382.000000 
	C515.195129,396.459778 518.753662,411.101318 510.861908,424.472076 
	C502.947632,437.881165 491.503632,445.882233 475.636353,445.941132 
	C430.470642,446.108856 385.298981,445.596741 340.139374,446.147400 
	C311.908417,446.491669 289.344574,457.978516 274.902191,483.351166 
	C269.249664,493.281616 266.000549,503.694824 266.000366,515.114136 
	C265.999481,566.780457 266.140625,618.447327 265.919434,670.112671 
	C265.847443,686.926697 259.630341,700.787842 243.713242,708.679871 
	C231.210815,714.878906 210.912903,713.136963 199.868088,701.643677 
	C191.763077,693.209473 187.975372,683.760315 187.978043,672.312073 
	C188.011536,528.479797 187.785706,384.646881 188.223877,240.815918 
	C188.292038,218.445160 196.805008,198.154831 209.686340,179.628525 
	C221.722397,162.317963 237.276779,149.399887 256.117004,140.586914 
	C267.901154,135.074570 280.285553,130.703339 293.542114,130.022995 
	C302.452179,129.565720 311.373566,129.051132 320.290283,129.043716 
	C407.456238,128.971161 494.622437,128.924377 581.788208,129.059860 
	C600.614685,129.089127 616.494019,141.063187 620.985107,160.421799 
	C624.320923,174.800278 620.798706,187.750961 610.921509,198.245544 
	C603.963989,205.637939 594.743774,209.991928 584.110413,209.993469 
	C502.277588,210.005341 420.444763,210.000000 338.128540,210.000000 
z"/>
<path fill="#000000" opacity="1.000000" stroke="none" 
	d="
M2425.317627,509.232361 
	C2418.832275,526.719971 2407.881104,539.535095 2390.407471,545.803772 
	C2379.263184,549.801758 2367.804443,550.966614 2355.836182,549.208862 
	C2345.230225,547.651245 2335.496094,544.745911 2326.808838,538.381653 
	C2313.576416,528.687134 2305.353516,515.705811 2300.982666,500.049530 
	C2297.512451,487.619324 2296.243652,474.910034 2297.094971,462.129059 
	C2298.564697,440.066711 2303.740723,419.201721 2320.431152,403.164246 
	C2330.668213,393.328064 2343.049805,388.399292 2357.302734,386.762512 
	C2367.974121,385.537018 2378.178955,386.482330 2388.067871,389.690552 
	C2409.236572,396.558136 2421.126465,412.244080 2426.976807,433.052368 
	C2429.813721,443.143707 2430.853760,453.439026 2431.156494,463.961182 
	C2431.597900,479.309937 2430.145996,494.272614 2425.317627,509.232361 
z"/>
<path fill="#000000" opacity="1.000000" stroke="none" 
	d="
M2778.000000,444.000000 
	C2770.856201,444.000000 2764.212402,444.000000 2756.344971,444.000000 
	C2758.367676,436.529694 2759.577148,429.260742 2762.290527,422.605103 
	C2768.578369,407.183960 2778.193848,394.174713 2794.070557,387.555603 
	C2813.229736,379.568115 2832.042969,380.751404 2848.355713,394.219971 
	C2858.015869,402.195618 2863.268799,413.521240 2864.997070,426.160828 
	C2865.785156,431.924744 2866.540771,437.693176 2867.383301,444.000000 
	C2837.326172,444.000000 2807.913086,444.000000 2778.000000,444.000000 
z"/>
<path fill="#000000" opacity="1.000000" stroke="none" 
	d="
M1465.465454,384.217834 
	C1474.794067,382.642334 1483.592896,382.501251 1492.505615,384.901184 
	C1504.958984,388.254547 1513.848755,395.829041 1519.915039,406.800171 
	C1525.558960,417.007538 1528.285400,428.084991 1528.020752,439.828064 
	C1527.991943,441.102844 1528.249146,442.384064 1528.388794,443.817261 
	C1492.283936,443.817261 1455.889771,443.817261 1419.494873,443.817261 
	C1419.654419,420.808502 1437.486694,390.471375 1465.465454,384.217834 
z"/>
<path fill="#000000" opacity="1.000000" stroke="none" 
	d="
M1744.697754,384.014343 
	C1751.505737,387.266846 1758.433594,389.747803 1764.125000,393.916779 
	C1773.696777,400.928284 1778.533569,411.375671 1780.913452,422.781921 
	C1782.336182,429.600159 1782.913574,436.594727 1783.906982,443.769989 
	C1747.325562,443.769989 1710.967529,443.769989 1673.771118,443.769989 
	C1676.078125,425.906525 1682.443359,410.269257 1695.715210,397.774323 
	C1709.525391,384.772736 1725.878296,380.832947 1744.697754,384.014343 
z"/>
</svg>